<svg xmlns="http://www.w3.org/2000/svg" width="73" height="71" viewBox="0 0 73 71">
  <path id="Color_Overlay" data-name="Color Overlay" d="M685.717,2394.913c-2.874-3.084-4.416-8.61-6.359-12.281-2.734-5.168-6.715-9.262-9.838-14.131-6.107-9.52-3.84-19.614,3.5-27.633a42.868,42.868,0,0,1,16.08-10.683c13.055-5.058,28.691-4.562,38.962,4.9,11.033,10.162,15.975,36.333,3.973,47.345-3.634,3.335-8.694,4.486-13.089,6.407-3.918,1.714-7.468,4-11.483,5.5-3.99,1.492-9.249,3.662-14,3.662A10.083,10.083,0,0,1,685.717,2394.913Z" transform="translate(-666 -2327)" fill="#086ad7"/>
</svg>
